<svg xmlns="http://www.w3.org/2000/svg" xmlns:xlink="http://www.w3.org/1999/xlink" width="100" height="100" viewBox="0 0 100 100"><g><g transform="translate(50 50) scale(0.69 0.69) rotate(0) translate(-50 -50)" style="fill:#064ff5"><svg fill="#064ff5" xmlns:dc="http://purl.org/dc/elements/1.1/" xmlns:cc="http://creativecommons.org/ns#" xmlns:rdf="http://www.w3.org/1999/02/22-rdf-syntax-ns#" xmlns:svg="http://www.w3.org/2000/svg" xmlns="http://www.w3.org/2000/svg" xmlns:sodipodi="http://sodipodi.sourceforge.net/DTD/sodipodi-0.dtd" xmlns:inkscape="http://www.inkscape.org/namespaces/inkscape" version="1.1" x="0px" y="0px" viewBox="0 0 100 100"><g transform="translate(0,-952.36218)"><path d="m 50,977.36215 c -1.6568,0 -3,1.34315 -3,3 l 0,18.99996 -19,0 c -1.6568,0 -3,1.34309 -3,2.99999 0,1.6568 1.3432,3 3,3 l 19,0 0,19 c 0,1.6569 1.3432,3.0001 3,3.0001 1.6569,0 3,-1.3432 3,-3.0001 l 0,-19 19,0 c 1.6568,0 3,-1.3432 3,-3 0,-1.6569 -1.3432,-2.99999 -3,-2.99999 l -19,0 0,-18.99996 c 0,-1.65685 -1.3431,-3 -3,-3 z" style="text-indent:0;text-transform:none;direction:ltr;block-progression:tb;baseline-shift:baseline;color:#000000;enable-background:accumulate;" fill="#064ff5" fill-opacity="1" stroke="none" marker="none" visibility="visible" display="inline" overflow="visible"></path></g></svg></g></g></svg>